<?xml version="1.0" encoding="UTF-8"?>
<svg width="24px" height="24px" viewBox="0 0 24 24" version="1.1" xmlns="http://www.w3.org/2000/svg" xmlns:xlink="http://www.w3.org/1999/xlink">
    <title>Icon-Architecture/16/Arch_Amazon-Genomics-CLI_16</title>
    <g id="Icon-Architecture/16/Arch_Amazon-Genomics-CLI_16" stroke="none" stroke-width="1" fill="none" fill-rule="evenodd">
        <g id="Icon-Architecture-BG/16/Compute" fill="#ED7100">
            <rect id="Rectangle" x="0" y="0" width="24" height="24"></rect>
        </g>
        <path d="M16,6 L18,6 L18,5 L16,5 L16,6 Z M16,13 L18,13 L18,12 L16,12 L16,13 Z M10.854,13.354 C11.049,13.158 11.049,12.842 10.854,12.646 L6.854,8.646 L6.146,9.354 L9.793,13 L6.146,16.646 L6.854,17.354 L10.854,13.354 Z M11,17 L16,17 L16,16 L11,16 L11,17 Z M20,19.5 L20,16 L19,16 L19,19 L5,19 L5,5 L12,5 L12,4 L4.5,4 C4.224,4 4,4.224 4,4.5 L4,19.5 C4,19.776 4.224,20 4.5,20 L19.5,20 C19.776,20 20,19.776 20,19.5 L20,19.5 Z M15,12.329 C15,11.928 15.156,11.551 15.439,11.268 L19.268,7.439 C19.74,6.967 20,6.339 20,5.671 L20,4 L19,4 L19,5.671 C19,6.072 18.844,6.449 18.561,6.732 L14.732,10.561 C14.26,11.033 14,11.661 14,12.329 L14,14 L15,14 L15,12.329 Z M15.232,7.939 L15.939,7.232 L15.439,6.732 C15.156,6.449 15,6.072 15,5.671 L15,4 L14,4 L14,5.671 C14,6.339 14.26,6.967 14.732,7.439 L15.232,7.939 Z M19.268,10.561 C19.74,11.033 20,11.661 20,12.329 L20,14 L19,14 L19,12.329 C19,11.928 18.844,11.551 18.561,11.268 L18.061,10.768 L18.768,10.061 L19.268,10.561 Z" id="Fill-4" fill="#FFFFFF"></path>
    </g>
</svg>