<?xml version="1.0" encoding="UTF-8"?>
<svg width="24px" height="24px" viewBox="0 0 24 24" version="1.1" xmlns="http://www.w3.org/2000/svg" xmlns:xlink="http://www.w3.org/1999/xlink">
    <title>Icon-Architecture/16/Arch_AWS-Fault-Injection-Simulator_16</title>
    <g id="Icon-Architecture/16/Arch_AWS-Fault-Injection-Simulator_16" stroke="none" stroke-width="1" fill="none" fill-rule="evenodd">
        <g id="Icon-Architecture-BG/16/Management-Governance" fill="#E7157B">
            <rect id="Rectangle" x="0" y="0" width="24" height="24"></rect>
        </g>
        <g id="Icon-Service/16/AWS-Fault-Injection-Simulator_16" transform="translate(4.000000, 4.450000)" fill="#FFFFFF">
            <path d="M6.489,4.53595989 C6.764,4.53595989 6.989,4.31195989 6.989,4.03595989 C6.989,3.75995989 6.764,3.53595989 6.489,3.53595989 C6.214,3.53595989 5.989,3.75995989 5.989,4.03595989 C5.989,4.31195989 6.214,4.53595989 6.489,4.53595989 L6.489,4.53595989 Z M6.489,5.53595989 C5.662,5.53595989 4.989,4.86295989 4.989,4.03595989 C4.989,3.20895989 5.662,2.53595989 6.489,2.53595989 C7.316,2.53595989 7.989,3.20895989 7.989,4.03595989 C7.989,4.86295989 7.316,5.53595989 6.489,5.53595989 L6.489,5.53595989 Z M9.782,8.44995989 L10.489,7.74295989 L11.196,8.44995989 L11.903,7.74295989 L11.196,7.03595989 L11.903,6.32895989 L11.196,5.62195989 L10.489,6.32895989 L9.782,5.62195989 L9.075,6.32895989 L9.782,7.03595989 L9.075,7.74295989 L9.782,8.44995989 Z M5.989,8.53595989 L4.989,8.53595989 L4.989,13.5359599 C4.989,13.8119599 5.214,14.0359599 5.489,14.0359599 C5.764,14.0359599 5.989,13.8119599 5.989,13.5359599 L5.989,8.53595989 Z M7.989,8.53595989 L6.989,8.53595989 L6.989,13.5359599 C6.989,14.3629599 6.316,15.0359599 5.489,15.0359599 C4.662,15.0359599 3.989,14.3629599 3.989,13.5359599 L3.989,8.53595989 L2.989,8.53595989 L2.989,7.53595989 L7.989,7.53595989 L7.989,8.53595989 Z M15.765,7.36995989 C15.765,9.70195989 13.846,10.4599599 12.832,10.5349599 L7.989,10.5359599 L7.989,9.53595989 L12.795,9.53595989 C12.962,9.51995989 14.765,9.31495989 14.765,7.36995989 C14.765,5.70695989 13.355,5.28395989 12.749,5.17995989 C12.478,5.13295989 12.296,4.87695989 12.341,4.60595989 C12.339,3.93095989 12.051,3.41995989 11.549,3.25495989 C11.108,3.11195989 10.627,3.27295989 10.344,3.65395989 C10.235,3.80295989 10.056,3.87495989 9.868,3.85195989 C9.685,3.82495989 9.532,3.69795989 9.47,3.52295989 C9.257,2.91695989 8.949,2.40995989 8.555,2.01495989 C8.076,1.53195989 6.759,0.493959894 4.902,1.28195989 C3.85,1.72895989 2.995,3.06895989 2.995,4.26795989 L3.022,4.70395989 C3.037,4.94295989 2.88,5.15895989 2.647,5.21895989 C2.032,5.37695989 1,5.86395989 1,7.34795989 C1,8.47195989 1.606,9.09095989 2.115,9.41195989 C2.268,9.50895989 2.364,9.53595989 2.56,9.53595989 L2.989,9.53595989 L2.989,10.5359599 L2.559,10.5359599 C2.177,10.5359599 1.893,10.4549599 1.582,10.2579599 C0.991,9.88495989 0,9.01095989 0,7.34795989 C0,5.93695989 0.74,4.85195989 2.001,4.37495989 L1.996,4.29895989 C1.995,2.65095989 3.077,0.970959894 4.511,0.361959894 C6.19,-0.352040106 7.968,0.00395989352 9.264,1.30895989 C9.605,1.65195989 9.894,2.05595989 10.127,2.51595989 C10.637,2.19895989 11.268,2.11095989 11.861,2.30495989 C12.684,2.57595989 13.213,3.30295989 13.319,4.28395989 C14.565,4.62595989 15.765,5.58195989 15.765,7.36995989 L15.765,7.36995989 Z" id="Fill-1"></path>
        </g>
    </g>
</svg>