<?xml version="1.0" encoding="UTF-8"?>
<svg width="40px" height="40px" viewBox="0 0 40 40" version="1.1" xmlns="http://www.w3.org/2000/svg" xmlns:xlink="http://www.w3.org/1999/xlink">
    <title>Icon-Architecture/32/Arch_Amazon-Kinesis-Data-Analytics_32</title>
    <g id="Icon-Architecture/32/Arch_Amazon-Kinesis-Data-Analytics_32" stroke="none" stroke-width="1" fill="none" fill-rule="evenodd">
        <g id="Icon-Architecture-BG/32/Analytics" fill="#8C4FFF">
            <rect id="Rectangle" x="0" y="0" width="40" height="40"></rect>
        </g>
        <g id="Icon-Service/32/Amazon-Kinesis-Data-Analytics" transform="translate(7.000000, 7.000000)" fill="#FFFFFF">
            <path d="M25.888,12.913 C4.234,12.913 1,9.024 1,6.706 L0,6.706 C0,10.238 4.767,12.48 14.172,13.413 C4.767,14.346 0,16.587 0,20.119 L1,20.119 C1,17.801 4.234,13.913 25.888,13.913 L25.888,12.913 Z M2.874,23.952 L3.874,23.952 C3.874,21.837 4.51,19.493 8.902,17.855 L8.902,16.794 C3.591,18.656 2.874,21.576 2.874,23.952 L2.874,23.952 Z M5.748,26.826 L6.748,26.826 C6.748,24.933 6.755,22.825 8.902,21.083 L8.902,19.842 C5.752,21.955 5.748,24.747 5.748,26.826 L5.748,26.826 Z M24.931,16.871 L11.931,16.871 L11.931,25.871 L12.931,25.871 L12.931,23.371 C12.931,23.095 13.155,22.871 13.431,22.871 L15.431,22.871 C15.707,22.871 15.931,23.095 15.931,23.371 L15.931,25.871 L16.931,25.871 L16.931,21.371 C16.931,21.095 17.155,20.871 17.431,20.871 L19.431,20.871 C19.707,20.871 19.931,21.095 19.931,21.371 L19.931,25.871 L20.931,25.871 L20.931,19.371 C20.931,19.095 21.155,18.871 21.431,18.871 L23.431,18.871 C23.707,18.871 23.931,19.095 23.931,19.371 L23.931,25.871 L24.931,25.871 L24.931,16.871 Z M21.931,25.871 L22.931,25.871 L22.931,19.871 L21.931,19.871 L21.931,25.871 Z M17.931,25.871 L18.931,25.871 L18.931,21.871 L17.931,21.871 L17.931,25.871 Z M13.931,25.871 L14.931,25.871 L14.931,23.871 L13.931,23.871 L13.931,25.871 Z M25.931,16.371 L25.931,26.371 C25.931,26.647 25.707,26.871 25.431,26.871 L11.431,26.871 C11.155,26.871 10.931,26.647 10.931,26.371 L10.931,16.371 C10.931,16.095 11.155,15.871 11.431,15.871 L25.431,15.871 C25.707,15.871 25.931,16.095 25.931,16.371 L25.931,16.371 Z M25.888,11.997 L25.888,10.997 C6.49,10.997 3.874,6.891 3.874,2.874 L2.874,2.874 C2.874,7.386 5.609,11.997 25.888,11.997 L25.888,11.997 Z M5.748,1.77635684e-15 L6.748,1.77635684e-15 C6.748,3.617 6.748,9.081 25.888,9.081 L25.888,10.081 C7.303,10.081 5.748,5.101 5.748,1.77635684e-15 L5.748,1.77635684e-15 Z" id="Amazon-Kinesis-Data-Analytics_Icon_32_Squid"></path>
        </g>
    </g>
</svg>