<?xml version="1.0" encoding="UTF-8"?>
<svg width="40px" height="40px" viewBox="0 0 40 40" version="1.1" xmlns="http://www.w3.org/2000/svg" xmlns:xlink="http://www.w3.org/1999/xlink">
    <title>Icon-Architecture/32/Arch_AWS-IoT-EduKit_32</title>
    <g id="Icon-Architecture/32/Arch_AWS-IoT-EduKit_32" stroke="none" stroke-width="1" fill="none" fill-rule="evenodd">
        <g id="Icon-Architecture-BG/32/Internet-of-Things" fill="#7AA116">
            <rect id="Rectangle" x="0" y="0" width="40" height="40"></rect>
        </g>
        <g id="Icon-Service/32/AWS-IoT-EduKit_32" transform="translate(6.000000, 6.000000)" fill="#FFFFFF">
            <path d="M5.501,22.001 C4.674,22.001 4.001,21.328 4.001,20.501 C4.001,19.674 4.674,19.001 5.501,19.001 C6.328,19.001 7.001,19.674 7.001,20.501 C7.001,21.328 6.328,22.001 5.501,22.001 L5.501,22.001 Z M11,15.501 L10,15.501 L10,20.001 L7.95,20.001 C7.718,18.861 6.709,18.001 5.501,18.001 C4.122,18.001 3.001,19.123 3.001,20.501 C3.001,21.879 4.122,23.001 5.501,23.001 C6.709,23.001 7.718,22.141 7.95,21.001 L10.5,21.001 C10.776,21.001 11,20.777 11,20.501 L11,15.501 Z M13.5,27.001 C12.673,27.001 12,26.328 12,25.501 C12,24.674 12.673,24.001 13.5,24.001 C14.327,24.001 15,24.674 15,25.501 C15,26.328 14.327,27.001 13.5,27.001 L13.5,27.001 Z M14,23.052 L14,16.013 L13,16.013 L13,23.052 C11.86,23.284 11,24.294 11,25.501 C11,26.879 12.121,28.001 13.5,28.001 C14.879,28.001 16,26.879 16,25.501 C16,24.294 15.14,23.284 14,23.052 L14,23.052 Z M21.499,22.001 C20.672,22.001 19.999,21.328 19.999,20.501 C19.999,19.674 20.672,19.001 21.499,19.001 C22.326,19.001 22.999,19.674 22.999,20.501 C22.999,21.328 22.326,22.001 21.499,22.001 L21.499,22.001 Z M21.499,18.001 C20.291,18.001 19.282,18.861 19.05,20.001 L17,20.001 L17,15.501 L16,15.501 L16,20.501 C16,20.777 16.224,21.001 16.5,21.001 L19.05,21.001 C19.282,22.141 20.291,23.001 21.499,23.001 C22.878,23.001 23.999,21.879 23.999,20.501 C23.999,19.123 22.878,18.001 21.499,18.001 L21.499,18.001 Z M13.5,8.971 L2.028,5 L13.5,1.029 L24.972,5 L13.5,8.971 Z M22.493,10.261 C22.323,12.092 18.753,14 13.5,14 C8.247,14 4.677,12.092 4.507,10.261 L6.259,7.523 L13.337,9.973 C13.39,9.991 13.444,10 13.5,10 C13.556,10 13.61,9.991 13.663,9.973 L20.741,7.523 L22.493,10.261 Z M26.663,4.527 L13.663,0.027 C13.558,-0.009 13.442,-0.009 13.337,0.027 L0.337,4.527 C0.135,4.597 0,4.787 0,5 C0,5.213 0.135,5.403 0.337,5.473 L5.287,7.186 L3.579,9.855 C3.527,9.936 3.5,10.029 3.5,10.125 C3.5,12.858 7.893,15 13.5,15 C19.107,15 23.5,12.858 23.5,10.125 C23.5,10.029 23.473,9.936 23.421,9.855 L21.713,7.186 L26.663,5.473 C26.865,5.403 27,5.213 27,5 C27,4.787 26.865,4.597 26.663,4.527 L26.663,4.527 Z" id="Fill-1"></path>
        </g>
    </g>
</svg>