<?xml version="1.0" encoding="UTF-8"?>
<svg width="24px" height="24px" viewBox="0 0 24 24" version="1.1" xmlns="http://www.w3.org/2000/svg" xmlns:xlink="http://www.w3.org/1999/xlink">
    <title>Icon-Architecture/16/Arch_Amazon-Honeycode_16</title>
    <g id="Icon-Architecture/16/Arch_Amazon-Honeycode_16" stroke="none" stroke-width="1" fill="none" fill-rule="evenodd">
        <g id="Icon-Architecture-BG/16/Business-Applications" fill="#DD344C">
            <rect id="Rectangle" x="0" y="0" width="24" height="24"></rect>
        </g>
        <g id="Icon-Service/16/Amazon-Honeycode_16" transform="translate(5.000000, 4.000000)" fill="#FFFFFF">
            <path d="M6.953,8.8817842e-16 L0,3.82 L0,12.385 L6.929,15.961 L14,12.385 L14,3.796 L6.953,8.8817842e-16 Z M10.999,5.632 L4.836,2.29 L6.953,1.139 L12.928,4.391 L12.928,8.334 L10.999,9.403 L10.999,5.632 Z M0.999,11.773 L0.999,4.415 L3.792,2.857 L5.913,4.02 L2.999,5.644 L2.999,12.794 L0.999,11.773 Z M3.999,9.929 L3.999,6.239 L6.955,4.593 L9.999,6.224 L9.999,9.938 L6.93,11.54 L3.999,9.929 Z M12.999,9.467 L12.999,11.773 L6.929,14.838 L3.999,13.306 L3.999,11.065 L6.927,12.675 L12.999,9.467 Z" id="Fill-4"></path>
        </g>
    </g>
</svg>