<?xml version="1.0" encoding="UTF-8"?>
<svg width="64px" height="64px" viewBox="0 0 64 64" version="1.1" xmlns="http://www.w3.org/2000/svg" xmlns:xlink="http://www.w3.org/1999/xlink">
    <title>Icon-Architecture/48/Arch_AWS-IoT-EduKit_48</title>
    <g id="Icon-Architecture/48/Arch_AWS-IoT-EduKit_48" stroke="none" stroke-width="1" fill="none" fill-rule="evenodd">
        <g id="Icon-Architecture-BG/48/Internet-of-Things" fill="#7AA116">
            <rect id="Rectangle" x="0" y="0" width="64" height="64"></rect>
        </g>
        <g id="Icon-Service/48/AWS-IoT-EduKit_48" transform="translate(10.000000, 10.000000)" fill="#FFFFFF">
            <path d="M11,34 C9.897,34 9,33.103 9,32 C9,30.897 9.897,30 11,30 C12.103,30 13,30.897 13,32 C13,33.103 12.103,34 11,34 M17,24.565 L17,31 L14.858,31 C14.411,29.28 12.859,28 11,28 C8.794,28 7,29.794 7,32 C7,34.206 8.794,36 11,36 C12.859,36 14.411,34.72 14.858,33 L18,33 C18.553,33 19,32.552 19,32 L19,24.832 C18.323,24.764 17.657,24.677 17,24.565 M22,42 C20.897,42 20,41.103 20,40 C20,38.897 20.897,38 22,38 C23.103,38 24,38.897 24,40 C24,41.103 23.103,42 22,42 M23,36.142 L23,24.967 C22.676,24.977 22.325,25 22,25 C21.655,25 21.344,24.974 21,24.963 L21,36.142 C19.28,36.589 18,38.142 18,40 C18,42.206 19.794,44 22,44 C24.206,44 26,42.206 26,40 C26,38.142 24.72,36.589 23,36.142 M22,21 C14.471,21 9.334,18.091 9.016,15.276 L10.936,12.366 L21.684,15.949 C21.786,15.983 21.894,16 22,16 C22.106,16 22.214,15.983 22.316,15.949 L33.109,12.351 L34.985,15.271 C34.673,18.087 29.535,21 22,21 M43.316,7.051 L22.316,0.051 C22.111,-0.017 21.889,-0.017 21.684,0.051 L14.67,2.389 L17.833,3.443 L22,2.054 L39.838,8 L22,13.946 L4.162,8 L11.5,5.554 L20.077,8.413 C20.3,9.06 21.036,9.5 22,9.5 C23.159,9.5 24,8.869 24,8 C24,7.131 23.159,6.5 22,6.5 C21.671,6.5 21.372,6.555 21.107,6.648 L4.316,1.051 C4.011,0.949 3.677,1 3.415,1.189 C3.154,1.377 3,1.679 3,2 L3,4.165 L5,3.499 L5,3.387 L8.338,4.5 L0.684,7.051 C0.275,7.188 0,7.569 0,8 C0,8.431 0.275,8.813 0.684,8.949 L3,9.721 L3,16.527 C2.111,17.603 2,19.969 2,20 C2,21.103 2.897,22 4,22 C5.103,22 6,21.103 6,20 C6,19.969 5.889,17.603 5,16.527 L5,10.388 L8.971,11.711 L7.165,14.449 C7.058,14.613 7,14.804 7,15 C7,19.486 13.589,23 22,23 C30.411,23 37,19.486 37,15 C37,14.808 36.945,14.621 36.841,14.459 L35.066,11.699 L43.316,8.949 C43.725,8.813 44,8.431 44,8 C44,7.569 43.725,7.188 43.316,7.051 M33,34 C31.897,34 31,33.103 31,32 C31,30.897 31.897,30 33,30 C34.103,30 35,30.897 35,32 C35,33.103 34.103,34 33,34 M33,28 C31.141,28 29.589,29.28 29.142,31 L27,31 L27,24.574 C26.343,24.685 25.677,24.772 25,24.838 L25,32 C25,32.552 25.447,33 26,33 L29.142,33 C29.589,34.72 31.141,36 33,36 C35.206,36 37,34.206 37,32 C37,29.794 35.206,28 33,28" id="Fill-3"></path>
        </g>
    </g>
</svg>