<?xml version="1.0" encoding="UTF-8"?>
<svg width="24px" height="24px" viewBox="0 0 24 24" version="1.1" xmlns="http://www.w3.org/2000/svg" xmlns:xlink="http://www.w3.org/1999/xlink">
    <title>Icon-Architecture/16/Arch_Amazon-API-Gateway_16</title>
    <g id="Icon-Architecture/16/Arch_Amazon-API-Gateway_16" stroke="none" stroke-width="1" fill="none" fill-rule="evenodd">
        <g id="Icon-Architecture-BG/16/Application-Integration" fill="#E7157B">
            <rect id="Rectangle" x="0" y="0" width="24" height="24"></rect>
        </g>
        <g id="Icon-Service/16/Amazon-API-Gateway_16" transform="translate(5.000000, 4.000000)" fill="#FFFFFF">
            <path d="M1,2.76751613 L3,1.43446738 L3,14.5659476 L1,13.2328988 L1,2.76751613 Z M0,2.49950633 L0,13.4999086 C0,13.6669147 0.084,13.8239204 0.223,13.9159238 L3.223,15.9159969 C3.307,15.971999 3.403,16 3.5,16 C3.581,16 3.662,15.9809993 3.736,15.9409978 C3.898,15.8539947 4,15.6849885 4,15.4999817 L4,12.9998903 L5,12.9998903 L5,11.9998537 L4,11.9998537 L4,3.99956118 L5,3.99956118 L5,2.99952461 L4,2.99952461 L4,0.499433192 C4,0.315426463 3.898,0.145420247 3.736,0.059417102 C3.574,-0.0275860794 3.377,-0.0185857503 3.223,0.0834179797 L0.223,2.08349112 C0.084,2.17649452 0,2.33250022 0,2.49950633 L0,2.49950633 Z M14,13.2328988 L12,14.5659476 L12,1.43446738 L14,2.76751613 L14,13.2328988 Z M14.777,2.08349112 L11.777,0.0834179797 C11.623,-0.0185857503 11.426,-0.0275860794 11.264,0.059417102 C11.102,0.145420247 11,0.315426463 11,0.499433192 L11,2.99952461 L10,2.99952461 L10,3.99956118 L11,3.99956118 L11,11.9998537 L10,11.9998537 L10,12.9998903 L11,12.9998903 L11,15.4999817 C11,15.6849885 11.102,15.8539947 11.264,15.9409978 C11.338,15.9809993 11.419,16 11.5,16 C11.597,16 11.693,15.971999 11.777,15.9159969 L14.777,13.9159238 C14.916,13.8239204 15,13.6669147 15,13.4999086 L15,2.49950633 C15,2.33250022 14.916,2.17649452 14.777,2.08349112 L14.777,2.08349112 Z M8,3.99956118 L9,3.99956118 L9,2.99952461 L8,2.99952461 L8,3.99956118 Z M6,3.99956118 L7,3.99956118 L7,2.99952461 L6,2.99952461 L6,3.99956118 Z M8,12.9998903 L9,12.9998903 L9,11.9998537 L8,11.9998537 L8,12.9998903 Z M6,12.9998903 L7,12.9998903 L7,11.9998537 L6,11.9998537 L6,12.9998903 Z M8.18,10.884813 L5.18,8.38472153 C5.065,8.28871802 5,8.1487129 5,7.99970745 C5,7.85170204 5.065,7.71069689 5.18,7.61569341 L8.18,5.11560199 L8.82,5.88463011 L6.281,7.99970745 L8.82,10.1157848 L8.18,10.884813 Z" id="Amazon-API-Gateway_Icon_16_Squid"></path>
        </g>
    </g>
</svg>