<?xml version="1.0" encoding="UTF-8"?>
<svg width="64px" height="64px" viewBox="0 0 64 64" version="1.1" xmlns="http://www.w3.org/2000/svg" xmlns:xlink="http://www.w3.org/1999/xlink">
    <title>Icon-Architecture/48/Arch_Amazon-Kinesis-Data-Analytics_48</title>
    <g id="Icon-Architecture/48/Arch_Amazon-Kinesis-Data-Analytics_48" stroke="none" stroke-width="1" fill="none" fill-rule="evenodd">
        <g id="Icon-Architecture-BG/48/Analytics" fill="#8C4FFF">
            <rect id="Rectangle" x="0" y="0" width="64" height="64"></rect>
        </g>
        <g id="Icon-Service/48/Amazon-Kinesis-Data-Analytics" transform="translate(11.000000, 10.000000)" fill="#FFFFFF">
            <path d="M5,38 L7,38 C7,35.071 7.57,32.047 14,29.879 L14,27.786 C6.129,30.248 5,34.141 5,38 L5,38 Z M9.9999763,43.875 L9.9999763,44 L12,44 L12,43.875 C11.999,41.302 12.005,38.848 14,36.726 L14,34.081 C10.011,37.022 9.999,40.81 9.9999763,43.875 L9.9999763,43.875 Z M41,28 L18,28 L18,42 L20,42 L20,37 C20,36.448 20.447,36 21,36 L24,36 C24.553,36 25,36.448 25,37 L25,42 L27,42 L27,34 C27,33.448 27.447,33 28,33 L31,33 C31.553,33 32,33.448 32,34 L32,42 L34,42 L34,32 C34,31.448 34.447,31 35,31 L38,31 C38.553,31 39,31.448 39,32 L39,42 L41,42 L41,28 Z M36,42 L37,42 L37,33 L36,33 L36,42 Z M29,42 L30,42 L30,35 L29,35 L29,42 Z M22,42 L23,42 L23,38 L22,38 L22,42 Z M43,27 L43,43 C43,43.552 42.553,44 42,44 L17,44 C16.447,44 16,43.552 16,43 L16,27 C16,26.448 16.447,26 17,26 L42,26 C42.553,26 43,26.448 43,27 L43,27 Z M2,13 L0,13 C0,16.614 2.747,20.285 19.012,22 C2.747,23.715 0,27.386 0,31 L2,31 C2,25.617 15.411,23 43,23 L43,21 C15.411,21 2,18.383 2,13 L2,13 Z M7,6 L5,6 C5,14.233 11.218,19 43,19 L43,17 C9.779,17 7,11.566 7,6 L7,6 Z M43,13 L43,15 C28.552,15 19.21,13.443 14.44,10.24 C9.998,7.257 9.999,3.302 9.99997,0.124 L9.99997,0 L12,0 L12,0.124 C11.999,3.244 11.999,6.191 15.556,8.58 C19.984,11.554 28.961,13 43,13 L43,13 Z" id="Amazon-Kinesis-Data-Analytics_Icon_48_Squid"></path>
        </g>
    </g>
</svg>